<svg xmlns="http://www.w3.org/2000/svg" xmlns:xlink="http://www.w3.org/1999/xlink" width="160" zoomAndPan="magnify" viewBox="0 0 120 44.999999" height="60" preserveAspectRatio="xMidYMid meet" version="1.0"><defs><clipPath id="43875d8803"><path d="M 5.484375 9.425781 L 32 9.425781 L 32 35.675781 L 5.484375 35.675781 Z M 5.484375 9.425781 " clip-rule="nonzero"/></clipPath></defs><path fill="#026ca9" d="M 19.585938 28.902344 C 20.003906 28.367188 20.21875 27.699219 20.21875 26.921875 C 20.21875 26.152344 20.011719 25.5 19.613281 24.972656 C 19.214844 24.453125 18.679688 24.195312 18 24.195312 L 16.484375 24.195312 L 16.484375 29.695312 L 17.914062 29.695312 C 18.621094 29.695312 19.164062 29.433594 19.585938 28.902344 Z M 19.585938 28.902344 " fill-opacity="1" fill-rule="nonzero"/><path fill="#026ca9" d="M 16.277344 12.480469 L 20.503906 12.480469 L 20.503906 12.863281 L 20.429688 12.871094 C 20.292969 12.886719 20.164062 12.902344 20.0625 12.929688 C 19.96875 12.953125 19.871094 12.988281 19.777344 13.050781 C 19.6875 13.101562 19.628906 13.160156 19.589844 13.234375 C 19.554688 13.308594 19.53125 13.414062 19.539062 13.539062 C 19.546875 13.671875 19.585938 13.835938 19.664062 14.027344 L 22.5 21.132812 L 25.171875 14.019531 C 25.238281 13.835938 25.285156 13.671875 25.285156 13.53125 C 25.289062 13.398438 25.269531 13.300781 25.230469 13.226562 C 25.1875 13.152344 25.128906 13.09375 25.03125 13.042969 C 24.9375 12.988281 24.839844 12.953125 24.746094 12.921875 C 24.644531 12.902344 24.515625 12.878906 24.378906 12.863281 L 24.304688 12.855469 L 24.304688 12.472656 L 24.773438 12.472656 C 22.914062 11.316406 20.777344 10.699219 18.574219 10.699219 C 16.34375 10.699219 14.195312 11.324219 12.324219 12.507812 C 12.757812 12.390625 13.246094 12.332031 13.78125 12.332031 C 14.597656 12.332031 15.4375 12.492188 16.285156 12.804688 L 16.285156 12.480469 Z M 16.277344 12.480469 " fill-opacity="1" fill-rule="nonzero"/><path fill="#026ca9" d="M 14.320312 24.210938 C 14.203125 24.121094 14.085938 24.054688 13.957031 24.019531 C 13.832031 23.980469 13.671875 23.949219 13.488281 23.9375 L 13.414062 23.929688 L 13.414062 23.625 C 12.339844 23.582031 11.242188 23.269531 10.136719 22.707031 L 10.09375 22.683594 L 10.078125 19.84375 L 10.460938 19.84375 L 10.476562 19.910156 C 10.578125 20.460938 10.742188 20.941406 10.953125 21.351562 C 11.175781 21.757812 11.433594 22.082031 11.71875 22.3125 C 12.015625 22.542969 12.324219 22.722656 12.640625 22.832031 C 12.957031 22.941406 13.296875 23.003906 13.648438 23.003906 C 14.304688 23.003906 14.835938 22.832031 15.21875 22.492188 C 15.601562 22.15625 15.792969 21.699219 15.785156 21.128906 C 15.777344 20.914062 15.75 20.710938 15.683594 20.527344 C 15.617188 20.339844 15.519531 20.179688 15.378906 20.015625 C 15.238281 19.859375 15.09375 19.710938 14.9375 19.585938 C 14.785156 19.460938 14.585938 19.328125 14.339844 19.199219 C 14.085938 19.058594 13.855469 18.949219 13.648438 18.859375 C 13.4375 18.761719 13.171875 18.652344 12.855469 18.511719 C 11.882812 18.125 11.152344 17.667969 10.691406 17.148438 C 10.21875 16.621094 9.984375 16 9.996094 15.292969 C 10.003906 14.902344 10.085938 14.53125 10.234375 14.199219 C 8.054688 16.414062 6.808594 19.421875 6.808594 22.550781 C 6.808594 27.492188 9.894531 31.953125 14.503906 33.667969 C 14.53125 33.613281 14.5625 33.554688 14.585938 33.496094 C 14.644531 33.332031 14.671875 33.117188 14.671875 32.875 L 14.671875 25.203125 C 14.671875 24.953125 14.644531 24.742188 14.585938 24.582031 C 14.519531 24.417969 14.429688 24.292969 14.320312 24.210938 Z M 12.632812 29.933594 C 12.65625 29.960938 12.738281 30.019531 13.023438 29.761719 C 13.171875 29.628906 13.324219 29.433594 13.464844 29.199219 L 13.507812 29.132812 L 13.722656 29.257812 L 13.695312 29.324219 C 13.546875 29.636719 13.347656 29.902344 13.113281 30.117188 C 12.863281 30.339844 12.617188 30.457031 12.375 30.457031 C 12.140625 30.457031 11.964844 30.347656 11.875 30.140625 C 11.808594 29.992188 11.800781 29.789062 11.84375 29.539062 C 11.441406 30.152344 11.011719 30.464844 10.558594 30.449219 C 10.234375 30.441406 9.996094 30.289062 9.835938 29.992188 C 9.679688 29.703125 9.644531 29.332031 9.726562 28.871094 C 9.761719 28.621094 9.828125 28.367188 9.925781 28.125 C 10.019531 27.871094 10.136719 27.632812 10.285156 27.40625 C 10.433594 27.175781 10.601562 26.976562 10.785156 26.796875 C 10.96875 26.617188 11.191406 26.476562 11.425781 26.382812 C 11.667969 26.285156 11.917969 26.242188 12.167969 26.253906 C 12.40625 26.277344 12.613281 26.351562 12.789062 26.484375 L 13.148438 25.335938 C 13.230469 25.0625 13.1875 24.980469 13.15625 24.957031 C 13.113281 24.921875 13.015625 24.882812 12.789062 24.90625 L 12.675781 24.914062 L 12.699219 24.648438 L 14.246094 24.359375 L 12.714844 29.25 C 12.558594 29.753906 12.605469 29.894531 12.632812 29.933594 Z M 12.632812 29.933594 " fill-opacity="1" fill-rule="nonzero"/><path fill="#026ca9" d="M 28.226562 25.824219 L 28.308594 25.574219 L 28.367188 25.566406 C 28.441406 25.558594 28.5 25.550781 28.550781 25.535156 C 28.605469 25.523438 28.648438 25.5 28.699219 25.460938 C 28.742188 25.433594 28.773438 25.394531 28.796875 25.335938 C 28.816406 25.277344 28.824219 25.203125 28.816406 25.105469 L 28.75 24.136719 L 27.203125 24.136719 L 26.527344 25.152344 C 26.460938 25.246094 26.425781 25.328125 26.402344 25.390625 C 26.394531 25.410156 26.386719 25.457031 26.402344 25.476562 C 26.425781 25.5 26.445312 25.523438 26.484375 25.535156 C 26.527344 25.550781 26.585938 25.558594 26.660156 25.566406 L 26.761719 25.574219 L 26.675781 25.824219 L 22.101562 25.824219 L 22.183594 25.574219 L 22.234375 25.566406 C 22.390625 25.550781 22.507812 25.515625 22.601562 25.441406 C 22.691406 25.375 22.765625 25.242188 22.824219 25.046875 L 23.863281 21.644531 C 23.882812 21.566406 23.898438 21.492188 23.90625 21.429688 C 23.90625 21.378906 23.90625 21.335938 23.890625 21.304688 C 23.882812 21.28125 23.863281 21.261719 23.839844 21.246094 C 23.8125 21.222656 23.78125 21.207031 23.746094 21.203125 C 23.699219 21.195312 23.65625 21.1875 23.589844 21.179688 L 23.480469 21.171875 L 23.574219 20.925781 L 25.320312 20.925781 L 25.253906 21.179688 L 25.195312 21.1875 C 25.039062 21.203125 24.914062 21.238281 24.820312 21.3125 C 24.730469 21.378906 24.648438 21.511719 24.589844 21.707031 L 23.441406 25.492188 L 24.207031 25.484375 C 24.378906 25.484375 24.523438 25.457031 24.65625 25.410156 C 24.789062 25.359375 24.90625 25.292969 25.011719 25.195312 C 25.113281 25.101562 25.203125 24.996094 25.277344 24.882812 C 25.347656 24.765625 25.421875 24.632812 25.496094 24.476562 L 25.527344 24.417969 L 25.785156 24.46875 L 25.363281 25.589844 L 25.363281 25.582031 L 25.410156 25.574219 C 25.496094 25.558594 25.578125 25.542969 25.652344 25.523438 C 25.71875 25.5 25.796875 25.449219 25.886719 25.375 C 25.976562 25.300781 26.0625 25.195312 26.152344 25.070312 L 28.914062 20.933594 L 29.246094 20.933594 L 29.523438 25.105469 C 29.53125 25.234375 29.554688 25.328125 29.582031 25.402344 C 29.613281 25.460938 29.648438 25.507812 29.6875 25.53125 C 29.730469 25.550781 29.789062 25.566406 29.871094 25.574219 L 29.945312 25.582031 C 30.195312 24.617188 30.335938 23.601562 30.335938 22.558594 C 30.335938 19.042969 28.804688 15.746094 26.128906 13.488281 C 26.019531 13.640625 25.917969 13.851562 25.828125 14.085938 L 22.273438 23.46875 L 21.550781 23.46875 L 21.527344 23.417969 L 17.734375 14.078125 C 17.550781 13.632812 17.351562 13.332031 17.132812 13.160156 C 16.949219 13.019531 16.734375 12.929688 16.492188 12.886719 C 16.652344 12.953125 16.816406 13.019531 16.96875 13.101562 L 17.015625 13.125 L 17.027344 15.867188 L 16.652344 15.867188 L 16.640625 15.796875 C 16.535156 15.273438 16.386719 14.820312 16.183594 14.433594 C 15.984375 14.058594 15.75 13.769531 15.484375 13.5625 C 15.21875 13.351562 14.945312 13.203125 14.660156 13.101562 C 14.371094 13.003906 14.070312 12.953125 13.753906 12.953125 C 13.089844 12.953125 12.550781 13.117188 12.148438 13.433594 C 11.75 13.753906 11.550781 14.140625 11.550781 14.613281 C 11.542969 15.09375 11.785156 15.515625 12.257812 15.878906 C 12.742188 16.25 13.539062 16.664062 14.621094 17.101562 C 15.5625 17.511719 16.261719 17.976562 16.699219 18.496094 C 17.140625 19.023438 17.359375 19.683594 17.347656 20.460938 C 17.339844 20.898438 17.273438 21.289062 17.140625 21.644531 C 17.007812 22 16.824219 22.304688 16.59375 22.550781 C 16.367188 22.792969 16.09375 22.996094 15.785156 23.15625 C 15.476562 23.320312 15.136719 23.441406 14.785156 23.515625 C 14.746094 23.519531 14.710938 23.527344 14.671875 23.535156 L 18.496094 23.535156 C 19.546875 23.535156 20.421875 23.863281 21.109375 24.5 C 21.792969 25.144531 22.140625 25.953125 22.140625 26.90625 C 22.140625 27.605469 21.960938 28.21875 21.601562 28.738281 C 21.25 29.257812 20.769531 29.65625 20.179688 29.925781 C 19.589844 30.191406 18.929688 30.324219 18.207031 30.324219 L 16.5 30.324219 L 16.5 32.851562 C 16.5 33.105469 16.527344 33.3125 16.585938 33.472656 C 16.644531 33.636719 16.734375 33.753906 16.84375 33.84375 C 16.964844 33.933594 17.089844 34 17.214844 34.039062 C 17.347656 34.074219 17.5 34.105469 17.675781 34.117188 L 17.75 34.125 L 17.75 34.355469 C 18.023438 34.378906 18.304688 34.386719 18.582031 34.386719 C 23.941406 34.386719 28.480469 30.761719 29.898438 25.820312 Z M 28.226562 25.824219 " fill-opacity="1" fill-rule="nonzero"/><path fill="#026ca9" d="M 27.433594 23.796875 L 28.722656 23.796875 L 28.605469 22.039062 Z M 27.433594 23.796875 " fill-opacity="1" fill-rule="nonzero"/><path fill="#026ca9" d="M 12.617188 26.953125 C 12.597656 26.863281 12.550781 26.789062 12.480469 26.730469 L 12.464844 26.714844 C 12.382812 26.65625 12.265625 26.625 12.132812 26.632812 C 11.84375 26.632812 11.574219 26.773438 11.324219 27.054688 C 11.058594 27.351562 10.84375 27.773438 10.675781 28.292969 C 10.585938 28.574219 10.527344 28.851562 10.503906 29.09375 C 10.484375 29.332031 10.5 29.53125 10.558594 29.6875 C 10.609375 29.828125 10.691406 29.894531 10.808594 29.902344 C 10.867188 29.910156 10.941406 29.894531 11.011719 29.859375 C 11.085938 29.828125 11.183594 29.753906 11.292969 29.648438 C 11.402344 29.546875 11.523438 29.40625 11.640625 29.234375 C 11.757812 29.066406 11.890625 28.828125 12.03125 28.53125 C 12.167969 28.234375 12.308594 27.894531 12.449219 27.507812 Z M 12.617188 26.953125 " fill-opacity="1" fill-rule="nonzero"/><g clip-path="url(#43875d8803)"><path fill="#026ca9" d="M 18.574219 35.675781 C 11.382812 35.675781 5.535156 29.785156 5.535156 22.550781 C 5.535156 15.316406 11.382812 9.425781 18.574219 9.425781 C 25.769531 9.425781 31.617188 15.308594 31.617188 22.550781 C 31.617188 29.789062 25.761719 35.675781 18.574219 35.675781 Z M 18.574219 9.957031 C 11.675781 9.957031 6.066406 15.605469 6.066406 22.550781 C 6.066406 29.496094 11.675781 35.140625 18.574219 35.140625 C 25.476562 35.140625 31.085938 29.496094 31.085938 22.550781 C 31.085938 15.605469 25.476562 9.957031 18.574219 9.957031 Z M 18.574219 9.957031 " fill-opacity="1" fill-rule="nonzero"/></g><path fill="#231f20" d="M 35.105469 19.941406 L 35.097656 18.214844 L 35.246094 18.214844 C 35.3125 18.570312 35.414062 18.882812 35.554688 19.148438 C 35.695312 19.414062 35.863281 19.621094 36.054688 19.777344 C 36.246094 19.933594 36.453125 20.046875 36.660156 20.121094 C 36.871094 20.195312 37.09375 20.230469 37.320312 20.230469 C 37.757812 20.230469 38.101562 20.121094 38.359375 19.890625 C 38.617188 19.667969 38.742188 19.363281 38.742188 18.976562 C 38.742188 18.835938 38.714844 18.703125 38.675781 18.578125 C 38.640625 18.453125 38.566406 18.339844 38.46875 18.238281 C 38.382812 18.132812 38.285156 18.035156 38.183594 17.957031 C 38.082031 17.875 37.953125 17.785156 37.792969 17.703125 C 37.632812 17.613281 37.484375 17.546875 37.351562 17.480469 C 37.21875 17.414062 37.050781 17.347656 36.84375 17.257812 C 36.226562 17.015625 35.769531 16.734375 35.472656 16.398438 C 35.179688 16.074219 35.039062 15.6875 35.046875 15.25 C 35.054688 14.714844 35.273438 14.273438 35.695312 13.921875 C 36.113281 13.574219 36.6875 13.40625 37.410156 13.40625 C 38.074219 13.40625 38.742188 13.566406 39.425781 13.894531 L 39.433594 15.554688 L 39.289062 15.554688 C 39.222656 15.214844 39.125 14.917969 38.992188 14.671875 C 38.859375 14.421875 38.707031 14.234375 38.535156 14.09375 C 38.359375 13.960938 38.183594 13.855469 37.992188 13.796875 C 37.808594 13.730469 37.609375 13.703125 37.394531 13.703125 C 36.960938 13.703125 36.609375 13.804688 36.335938 14.019531 C 36.070312 14.234375 35.9375 14.5 35.9375 14.8125 C 35.9375 15.140625 36.09375 15.421875 36.410156 15.664062 C 36.726562 15.910156 37.234375 16.167969 37.925781 16.457031 C 38.523438 16.71875 38.957031 17.007812 39.234375 17.332031 C 39.515625 17.660156 39.648438 18.066406 39.632812 18.554688 C 39.632812 18.828125 39.589844 19.074219 39.507812 19.296875 C 39.425781 19.519531 39.316406 19.703125 39.167969 19.851562 C 39.023438 20 38.859375 20.125 38.667969 20.230469 C 38.476562 20.335938 38.265625 20.410156 38.042969 20.453125 C 37.824219 20.496094 37.585938 20.519531 37.335938 20.519531 C 36.609375 20.527344 35.863281 20.335938 35.105469 19.941406 Z M 35.105469 19.941406 " fill-opacity="1" fill-rule="nonzero"/><path fill="#231f20" d="M 41.277344 20.320312 C 40.996094 20.199219 40.753906 20.039062 40.546875 19.832031 C 40.332031 19.621094 40.171875 19.355469 40.046875 19.042969 C 39.921875 18.734375 39.863281 18.386719 39.863281 18.015625 C 39.863281 17.644531 39.921875 17.304688 40.046875 16.992188 C 40.171875 16.679688 40.332031 16.421875 40.546875 16.222656 C 40.761719 16.015625 41.003906 15.859375 41.277344 15.746094 C 41.546875 15.636719 41.84375 15.578125 42.152344 15.578125 C 42.460938 15.578125 42.75 15.636719 43.027344 15.746094 C 43.308594 15.859375 43.550781 16.019531 43.757812 16.222656 C 43.964844 16.429688 44.132812 16.679688 44.257812 16.992188 C 44.382812 17.304688 44.441406 17.644531 44.441406 18.015625 C 44.441406 18.386719 44.382812 18.726562 44.257812 19.042969 C 44.132812 19.355469 43.964844 19.621094 43.757812 19.832031 C 43.550781 20.039062 43.300781 20.199219 43.027344 20.320312 C 42.75 20.4375 42.460938 20.488281 42.152344 20.488281 C 41.84375 20.488281 41.546875 20.4375 41.277344 20.320312 Z M 41.019531 18.824219 C 41.0625 19.074219 41.136719 19.3125 41.222656 19.519531 C 41.320312 19.726562 41.445312 19.898438 41.601562 20.023438 C 41.753906 20.148438 41.9375 20.214844 42.144531 20.214844 C 42.410156 20.214844 42.636719 20.105469 42.828125 19.890625 C 43.011719 19.675781 43.152344 19.402344 43.234375 19.074219 C 43.316406 18.75 43.359375 18.398438 43.359375 18.015625 C 43.359375 17.636719 43.316406 17.289062 43.234375 16.96875 C 43.152344 16.652344 43.011719 16.382812 42.828125 16.175781 C 42.644531 15.960938 42.417969 15.859375 42.144531 15.859375 C 41.871094 15.859375 41.652344 15.960938 41.46875 16.175781 C 41.28125 16.390625 41.152344 16.660156 41.070312 16.96875 C 40.988281 17.28125 40.953125 17.636719 40.953125 18.015625 C 40.953125 18.304688 40.972656 18.570312 41.019531 18.824219 Z M 41.019531 18.824219 " fill-opacity="1" fill-rule="nonzero"/><path fill="#231f20" d="M 46.023438 20.328125 C 45.765625 20.214844 45.539062 20.058594 45.339844 19.851562 C 45.140625 19.644531 44.988281 19.386719 44.867188 19.074219 C 44.75 18.753906 44.691406 18.40625 44.691406 18.03125 C 44.691406 17.304688 44.90625 16.710938 45.332031 16.257812 C 45.761719 15.804688 46.304688 15.582031 46.96875 15.582031 C 47.484375 15.582031 48.011719 15.746094 48.578125 16.074219 L 48.585938 17.3125 L 48.441406 17.3125 C 48.109375 16.371094 47.636719 15.902344 47.027344 15.902344 C 46.746094 15.902344 46.503906 15.992188 46.304688 16.175781 C 46.105469 16.355469 45.957031 16.589844 45.871094 16.878906 C 45.78125 17.167969 45.738281 17.488281 45.738281 17.84375 C 45.746094 18.445312 45.886719 18.941406 46.148438 19.332031 C 46.414062 19.726562 46.785156 19.917969 47.246094 19.917969 C 47.519531 19.917969 47.769531 19.84375 48.003906 19.703125 C 48.234375 19.5625 48.441406 19.363281 48.609375 19.125 L 48.726562 19.15625 C 48.578125 19.542969 48.34375 19.867188 48.019531 20.121094 C 47.695312 20.371094 47.296875 20.503906 46.835938 20.503906 C 46.554688 20.496094 46.28125 20.4375 46.023438 20.328125 Z M 46.023438 20.328125 " fill-opacity="1" fill-rule="nonzero"/><path fill="#231f20" d="M 49.152344 20.082031 C 49.285156 19.972656 49.351562 19.765625 49.351562 19.460938 L 49.351562 16.597656 C 49.351562 16.445312 49.332031 16.304688 49.292969 16.199219 C 49.257812 16.09375 49.199219 16.015625 49.125 15.953125 C 49.050781 15.894531 48.96875 15.859375 48.890625 15.828125 C 48.808594 15.796875 48.710938 15.785156 48.59375 15.777344 L 48.59375 15.644531 L 50.308594 15.644531 L 50.308594 19.460938 C 50.308594 19.765625 50.375 19.972656 50.507812 20.082031 C 50.640625 20.195312 50.832031 20.261719 51.074219 20.28125 L 51.074219 20.414062 L 48.585938 20.414062 L 48.585938 20.28125 C 48.832031 20.261719 49.023438 20.195312 49.152344 20.082031 Z M 49.234375 13.855469 C 49.359375 13.738281 49.515625 13.671875 49.691406 13.671875 C 49.867188 13.671875 50.023438 13.730469 50.148438 13.855469 C 50.273438 13.984375 50.339844 14.132812 50.339844 14.308594 C 50.339844 14.488281 50.273438 14.644531 50.148438 14.769531 C 50.023438 14.894531 49.867188 14.953125 49.691406 14.953125 C 49.515625 14.953125 49.367188 14.894531 49.234375 14.769531 C 49.101562 14.644531 49.035156 14.488281 49.035156 14.308594 C 49.042969 14.125 49.109375 13.976562 49.234375 13.855469 Z M 49.234375 13.855469 " fill-opacity="1" fill-rule="nonzero"/><path fill="#231f20" d="M 52.195312 20.328125 C 51.9375 20.214844 51.710938 20.058594 51.503906 19.851562 C 51.304688 19.644531 51.140625 19.386719 51.023438 19.074219 C 50.90625 18.753906 50.847656 18.40625 50.847656 18.03125 C 50.847656 17.289062 51.046875 16.695312 51.4375 16.25 C 51.828125 15.804688 52.335938 15.582031 52.953125 15.582031 C 53.566406 15.582031 54.042969 15.796875 54.390625 16.230469 C 54.734375 16.660156 54.90625 17.207031 54.898438 17.882812 L 51.855469 17.882812 C 51.871094 18.519531 52.019531 19.015625 52.296875 19.363281 C 52.578125 19.710938 52.9375 19.890625 53.375 19.890625 C 53.933594 19.890625 54.410156 19.636719 54.792969 19.132812 L 54.910156 19.164062 C 54.78125 19.535156 54.542969 19.84375 54.210938 20.105469 C 53.875 20.363281 53.484375 20.488281 53.019531 20.488281 C 52.726562 20.496094 52.453125 20.4375 52.195312 20.328125 Z M 53.910156 17.605469 C 53.902344 17.304688 53.859375 17.023438 53.785156 16.761719 C 53.710938 16.503906 53.601562 16.289062 53.445312 16.125 C 53.300781 15.953125 53.121094 15.871094 52.925781 15.871094 C 52.710938 15.871094 52.527344 15.960938 52.363281 16.140625 C 52.203125 16.316406 52.085938 16.539062 52.003906 16.792969 C 51.921875 17.042969 51.878906 17.316406 51.863281 17.605469 Z M 53.910156 17.605469 " fill-opacity="1" fill-rule="nonzero"/><path fill="#231f20" d="M 55.683594 20.132812 C 55.488281 19.898438 55.382812 19.5625 55.382812 19.148438 L 55.382812 15.96875 L 54.683594 15.96875 L 54.683594 15.8125 C 55 15.71875 55.296875 15.546875 55.558594 15.292969 C 55.824219 15.042969 56.046875 14.730469 56.214844 14.347656 L 56.378906 14.347656 L 56.378906 15.644531 L 57.6875 15.644531 L 57.6875 15.96875 L 56.378906 15.96875 L 56.378906 19.023438 C 56.378906 19.304688 56.429688 19.519531 56.53125 19.675781 C 56.636719 19.832031 56.796875 19.90625 57.011719 19.90625 C 57.246094 19.90625 57.472656 19.800781 57.695312 19.601562 L 57.804688 19.628906 C 57.503906 20.207031 57.085938 20.503906 56.539062 20.503906 C 56.171875 20.496094 55.882812 20.371094 55.683594 20.132812 Z M 55.683594 20.132812 " fill-opacity="1" fill-rule="nonzero"/><path fill="#231f20" d="M 57.921875 21.335938 L 58.019531 21.277344 C 58.4375 21.519531 58.816406 21.601562 59.144531 21.519531 C 59.476562 21.4375 59.707031 21.222656 59.839844 20.859375 L 59.902344 20.691406 L 58.253906 16.546875 C 58.136719 16.265625 58.019531 16.074219 57.894531 15.96875 C 57.769531 15.867188 57.613281 15.796875 57.4375 15.777344 L 57.4375 15.644531 L 59.75 15.644531 L 59.75 15.777344 C 59.640625 15.792969 59.542969 15.804688 59.476562 15.835938 C 59.402344 15.867188 59.34375 15.902344 59.292969 15.960938 C 59.242188 16.015625 59.21875 16.09375 59.226562 16.191406 C 59.226562 16.289062 59.257812 16.414062 59.316406 16.554688 L 60.40625 19.394531 L 61.488281 16.554688 C 61.53125 16.4375 61.554688 16.339844 61.5625 16.25 C 61.566406 16.160156 61.5625 16.09375 61.539062 16.035156 C 61.515625 15.976562 61.480469 15.933594 61.429688 15.894531 C 61.375 15.859375 61.3125 15.828125 61.246094 15.8125 C 61.179688 15.796875 61.097656 15.785156 61 15.777344 L 61 15.644531 L 62.679688 15.644531 L 62.679688 15.777344 C 62.496094 15.796875 62.335938 15.867188 62.203125 15.96875 C 62.0625 16.082031 61.945312 16.273438 61.832031 16.554688 L 60.148438 20.898438 C 59.96875 21.351562 59.773438 21.699219 59.550781 21.933594 C 59.324219 22.171875 59.066406 22.3125 58.769531 22.351562 C 58.476562 22.386719 58.144531 22.304688 57.785156 22.097656 Z M 57.921875 21.335938 " fill-opacity="1" fill-rule="nonzero"/><path fill="#231f20" d="M 64.859375 20.230469 C 64.609375 20.03125 64.433594 19.742188 64.34375 19.363281 C 64.25 18.984375 64.269531 18.527344 64.402344 17.984375 C 64.527344 17.496094 64.734375 17.066406 65.023438 16.695312 C 65.308594 16.324219 65.632812 16.050781 65.984375 15.867188 C 66.339844 15.679688 66.699219 15.589844 67.0625 15.605469 C 67.421875 15.613281 67.722656 15.710938 67.964844 15.902344 C 68.210938 16.09375 68.378906 16.375 68.46875 16.746094 C 68.554688 17.117188 68.535156 17.570312 68.402344 18.105469 C 68.277344 18.601562 68.070312 19.042969 67.789062 19.421875 C 67.511719 19.800781 67.195312 20.089844 66.847656 20.273438 C 66.5 20.46875 66.148438 20.558594 65.789062 20.542969 C 65.417969 20.535156 65.109375 20.429688 64.859375 20.230469 Z M 65.082031 19.140625 C 65.082031 19.480469 65.148438 19.757812 65.277344 19.972656 C 65.410156 20.1875 65.601562 20.296875 65.847656 20.304688 C 66.089844 20.3125 66.324219 20.207031 66.554688 19.992188 C 66.78125 19.777344 66.980469 19.511719 67.148438 19.179688 C 67.320312 18.851562 67.453125 18.480469 67.554688 18.082031 C 67.628906 17.792969 67.679688 17.519531 67.695312 17.25 C 67.714844 16.992188 67.710938 16.753906 67.671875 16.539062 C 67.636719 16.324219 67.5625 16.160156 67.445312 16.027344 C 67.328125 15.894531 67.179688 15.835938 66.996094 15.828125 C 66.75 15.820312 66.507812 15.925781 66.265625 16.132812 C 66.023438 16.339844 65.816406 16.605469 65.640625 16.933594 C 65.464844 17.257812 65.332031 17.605469 65.226562 17.992188 C 65.132812 18.421875 65.082031 18.800781 65.082031 19.140625 Z M 65.082031 19.140625 " fill-opacity="1" fill-rule="nonzero"/><path fill="#231f20" d="M 67.082031 22.054688 C 67.261719 21.921875 67.414062 21.773438 67.554688 21.601562 C 67.695312 21.429688 67.820312 21.253906 67.929688 21.074219 C 68.039062 20.898438 68.152344 20.683594 68.246094 20.445312 C 68.34375 20.207031 68.429688 19.984375 68.503906 19.769531 C 68.578125 19.554688 68.660156 19.3125 68.738281 19.03125 L 69.691406 15.917969 L 69.042969 15.917969 L 69.128906 15.664062 L 69.769531 15.664062 C 69.894531 15.242188 70.050781 14.871094 70.21875 14.570312 C 70.398438 14.265625 70.582031 14.027344 70.773438 13.863281 C 70.972656 13.703125 71.164062 13.582031 71.347656 13.507812 C 71.539062 13.433594 71.730469 13.398438 71.933594 13.398438 C 72.3125 13.398438 72.679688 13.492188 73.046875 13.695312 L 72.636719 14.746094 L 72.539062 14.746094 C 72.539062 14.390625 72.480469 14.117188 72.355469 13.921875 C 72.238281 13.730469 72.074219 13.640625 71.890625 13.648438 C 71.414062 13.648438 71.023438 14.140625 70.71875 15.117188 L 70.550781 15.671875 L 71.757812 15.671875 L 71.671875 15.925781 L 70.46875 15.925781 L 69.476562 19.164062 C 69.308594 19.726562 69.109375 20.207031 68.894531 20.625 C 68.679688 21.039062 68.4375 21.363281 68.1875 21.617188 C 67.9375 21.867188 67.671875 22.0625 67.40625 22.195312 C 67.140625 22.328125 66.855469 22.425781 66.539062 22.476562 L 66.496094 22.410156 C 66.714844 22.304688 66.90625 22.1875 67.082031 22.054688 Z M 67.082031 22.054688 " fill-opacity="1" fill-rule="nonzero"/><path fill="#231f20" d="M 74.96875 19.941406 L 74.960938 18.214844 L 75.109375 18.214844 C 75.175781 18.570312 75.277344 18.882812 75.417969 19.148438 C 75.558594 19.414062 75.726562 19.621094 75.917969 19.777344 C 76.109375 19.933594 76.316406 20.046875 76.523438 20.121094 C 76.734375 20.195312 76.957031 20.230469 77.183594 20.230469 C 77.621094 20.230469 77.964844 20.121094 78.222656 19.890625 C 78.480469 19.667969 78.605469 19.363281 78.605469 18.976562 C 78.605469 18.835938 78.578125 18.703125 78.539062 18.578125 C 78.496094 18.453125 78.429688 18.339844 78.332031 18.238281 C 78.246094 18.132812 78.148438 18.035156 78.046875 17.957031 C 77.945312 17.875 77.820312 17.785156 77.65625 17.703125 C 77.496094 17.613281 77.347656 17.546875 77.214844 17.480469 C 77.082031 17.421875 76.914062 17.347656 76.707031 17.257812 C 76.089844 17.015625 75.632812 16.734375 75.335938 16.398438 C 75.042969 16.074219 74.902344 15.6875 74.910156 15.25 C 74.917969 14.714844 75.136719 14.273438 75.558594 13.921875 C 75.976562 13.574219 76.550781 13.40625 77.273438 13.40625 C 77.9375 13.40625 78.605469 13.566406 79.292969 13.894531 L 79.296875 15.554688 L 79.152344 15.554688 C 79.085938 15.214844 78.988281 14.917969 78.855469 14.671875 C 78.722656 14.421875 78.570312 14.234375 78.398438 14.09375 C 78.222656 13.960938 78.046875 13.855469 77.855469 13.796875 C 77.671875 13.730469 77.472656 13.703125 77.257812 13.703125 C 76.824219 13.703125 76.472656 13.804688 76.199219 14.019531 C 75.933594 14.234375 75.800781 14.5 75.800781 14.8125 C 75.800781 15.140625 75.957031 15.421875 76.273438 15.664062 C 76.589844 15.910156 77.097656 16.167969 77.789062 16.457031 C 78.386719 16.71875 78.820312 17.007812 79.101562 17.332031 C 79.378906 17.660156 79.511719 18.066406 79.496094 18.554688 C 79.496094 18.828125 79.453125 19.074219 79.371094 19.296875 C 79.292969 19.519531 79.179688 19.703125 79.035156 19.851562 C 78.894531 20 78.722656 20.125 78.53125 20.230469 C 78.339844 20.335938 78.128906 20.410156 77.90625 20.453125 C 77.6875 20.496094 77.449219 20.519531 77.199219 20.519531 C 76.472656 20.527344 75.726562 20.335938 74.96875 19.941406 Z M 74.96875 19.941406 " fill-opacity="1" fill-rule="nonzero"/><path fill="#231f20" d="M 80.34375 20.132812 C 80.144531 19.898438 80.042969 19.5625 80.042969 19.148438 L 80.042969 15.96875 L 79.34375 15.96875 L 79.34375 15.8125 C 79.660156 15.71875 79.953125 15.546875 80.21875 15.292969 C 80.484375 15.042969 80.703125 14.730469 80.875 14.347656 L 81.035156 14.347656 L 81.035156 15.644531 L 82.347656 15.644531 L 82.347656 15.96875 L 81.035156 15.96875 L 81.035156 19.023438 C 81.035156 19.304688 81.085938 19.519531 81.191406 19.675781 C 81.292969 19.832031 81.457031 19.90625 81.667969 19.90625 C 81.90625 19.90625 82.132812 19.800781 82.355469 19.601562 L 82.464844 19.628906 C 82.164062 20.207031 81.742188 20.503906 81.199219 20.503906 C 80.828125 20.496094 80.542969 20.371094 80.34375 20.132812 Z M 80.34375 20.132812 " fill-opacity="1" fill-rule="nonzero"/><path fill="#231f20" d="M 82.90625 20.296875 C 82.773438 20.164062 82.707031 20 82.707031 19.816406 C 82.707031 19.628906 82.773438 19.46875 82.90625 19.339844 C 83.039062 19.214844 83.199219 19.148438 83.386719 19.148438 C 83.570312 19.148438 83.730469 19.214844 83.863281 19.339844 C 83.996094 19.46875 84.0625 19.628906 84.0625 19.816406 C 84.0625 20 83.996094 20.164062 83.863281 20.296875 C 83.730469 20.429688 83.570312 20.496094 83.386719 20.496094 C 83.199219 20.496094 83.039062 20.429688 82.90625 20.296875 Z M 82.90625 20.296875 " fill-opacity="1" fill-rule="nonzero"/><path fill="#231f20" d="M 85.359375 13.695312 C 85.292969 13.707031 85.226562 13.738281 85.160156 13.777344 C 85.09375 13.8125 85.050781 13.855469 85.019531 13.917969 C 84.988281 13.96875 84.976562 14.042969 84.984375 14.140625 C 84.988281 14.234375 85.011719 14.339844 85.0625 14.464844 L 86.925781 19.132812 L 88.679688 14.464844 C 88.722656 14.339844 88.753906 14.226562 88.753906 14.140625 C 88.753906 14.050781 88.746094 13.96875 88.707031 13.917969 C 88.679688 13.863281 88.628906 13.8125 88.5625 13.777344 C 88.496094 13.738281 88.429688 13.707031 88.363281 13.695312 C 88.296875 13.679688 88.214844 13.664062 88.121094 13.65625 L 88.121094 13.507812 L 90.003906 13.507812 L 90.003906 13.65625 C 89.761719 13.679688 89.5625 13.753906 89.402344 13.863281 C 89.246094 13.976562 89.105469 14.175781 89.003906 14.464844 L 86.742188 20.421875 L 86.351562 20.421875 L 83.921875 14.464844 C 83.804688 14.167969 83.664062 13.96875 83.515625 13.855469 C 83.371094 13.746094 83.195312 13.679688 82.996094 13.65625 L 82.996094 13.507812 L 85.585938 13.507812 L 85.585938 13.65625 C 85.511719 13.664062 85.433594 13.679688 85.359375 13.695312 Z M 85.359375 13.695312 " fill-opacity="1" fill-rule="nonzero"/><path fill="#231f20" d="M 90.027344 20.082031 C 90.160156 19.972656 90.226562 19.765625 90.226562 19.460938 L 90.226562 16.597656 C 90.226562 16.445312 90.203125 16.304688 90.167969 16.199219 C 90.128906 16.085938 90.070312 16.007812 89.996094 15.953125 C 89.921875 15.894531 89.84375 15.859375 89.761719 15.828125 C 89.679688 15.796875 89.585938 15.785156 89.46875 15.777344 L 89.46875 15.644531 L 91.183594 15.644531 L 91.183594 19.460938 C 91.183594 19.765625 91.25 19.972656 91.382812 20.082031 C 91.515625 20.195312 91.707031 20.261719 91.949219 20.28125 L 91.949219 20.414062 L 89.460938 20.414062 L 89.460938 20.28125 C 89.710938 20.261719 89.894531 20.195312 90.027344 20.082031 Z M 90.109375 13.855469 C 90.234375 13.738281 90.386719 13.671875 90.5625 13.671875 C 90.742188 13.671875 90.894531 13.730469 91.019531 13.855469 C 91.144531 13.976562 91.210938 14.132812 91.210938 14.308594 C 91.210938 14.488281 91.144531 14.644531 91.019531 14.769531 C 90.894531 14.894531 90.742188 14.953125 90.5625 14.953125 C 90.386719 14.953125 90.238281 14.894531 90.109375 14.769531 C 89.976562 14.644531 89.910156 14.488281 89.910156 14.308594 C 89.914062 14.125 89.980469 13.976562 90.109375 13.855469 Z M 90.109375 13.855469 " fill-opacity="1" fill-rule="nonzero"/><path fill="#231f20" d="M 95.097656 20.082031 C 95.210938 19.972656 95.261719 19.765625 95.261719 19.460938 L 95.261719 17.222656 C 95.261719 16.894531 95.171875 16.652344 95.003906 16.480469 C 94.835938 16.308594 94.621094 16.230469 94.371094 16.230469 C 93.988281 16.222656 93.632812 16.398438 93.308594 16.777344 L 93.308594 19.453125 C 93.308594 19.757812 93.363281 19.964844 93.472656 20.074219 C 93.582031 20.1875 93.738281 20.253906 93.945312 20.273438 L 93.945312 20.410156 L 91.625 20.410156 L 91.625 20.273438 C 91.734375 20.269531 91.824219 20.246094 91.898438 20.222656 C 91.96875 20.199219 92.042969 20.15625 92.109375 20.097656 C 92.175781 20.039062 92.234375 19.957031 92.265625 19.851562 C 92.300781 19.742188 92.316406 19.609375 92.316406 19.453125 L 92.316406 16.597656 C 92.316406 16.445312 92.300781 16.304688 92.265625 16.199219 C 92.226562 16.085938 92.175781 16.007812 92.109375 15.953125 C 92.042969 15.894531 91.96875 15.859375 91.898438 15.828125 C 91.824219 15.796875 91.726562 15.785156 91.625 15.777344 L 91.625 15.644531 L 93.308594 15.644531 L 93.308594 16.496094 C 93.496094 16.199219 93.722656 15.976562 93.980469 15.820312 C 94.238281 15.664062 94.519531 15.582031 94.8125 15.582031 C 95.0625 15.582031 95.296875 15.636719 95.511719 15.738281 C 95.726562 15.84375 95.902344 16.015625 96.042969 16.25 C 96.183594 16.488281 96.253906 16.769531 96.253906 17.097656 L 96.253906 19.460938 C 96.253906 19.757812 96.316406 19.964844 96.441406 20.082031 C 96.566406 20.195312 96.734375 20.269531 96.960938 20.289062 L 96.960938 20.421875 L 94.628906 20.421875 L 94.628906 20.289062 C 94.835938 20.261719 94.996094 20.195312 95.097656 20.082031 Z M 95.097656 20.082031 " fill-opacity="1" fill-rule="nonzero"/><path fill="#231f20" d="M 98.050781 20.328125 C 97.792969 20.214844 97.566406 20.058594 97.367188 19.851562 C 97.167969 19.644531 97.015625 19.386719 96.894531 19.074219 C 96.777344 18.753906 96.71875 18.40625 96.71875 18.03125 C 96.71875 17.304688 96.933594 16.710938 97.359375 16.257812 C 97.785156 15.804688 98.332031 15.582031 98.996094 15.582031 C 99.511719 15.582031 100.039062 15.746094 100.605469 16.074219 L 100.613281 17.3125 L 100.46875 17.3125 C 100.136719 16.371094 99.664062 15.902344 99.054688 15.902344 C 98.773438 15.902344 98.53125 15.992188 98.332031 16.175781 C 98.132812 16.355469 97.984375 16.589844 97.898438 16.878906 C 97.808594 17.167969 97.765625 17.488281 97.765625 17.84375 C 97.773438 18.445312 97.914062 18.941406 98.175781 19.332031 C 98.441406 19.726562 98.808594 19.917969 99.273438 19.917969 C 99.546875 19.917969 99.796875 19.84375 100.03125 19.703125 C 100.261719 19.5625 100.46875 19.363281 100.636719 19.125 L 100.753906 19.15625 C 100.605469 19.542969 100.371094 19.867188 100.046875 20.121094 C 99.722656 20.371094 99.324219 20.503906 98.863281 20.503906 C 98.582031 20.496094 98.308594 20.4375 98.050781 20.328125 Z M 98.050781 20.328125 " fill-opacity="1" fill-rule="nonzero"/><path fill="#231f20" d="M 102.160156 20.328125 C 101.902344 20.214844 101.675781 20.058594 101.46875 19.851562 C 101.261719 19.644531 101.109375 19.386719 100.988281 19.074219 C 100.871094 18.753906 100.8125 18.40625 100.8125 18.03125 C 100.8125 17.289062 101.011719 16.695312 101.402344 16.25 C 101.792969 15.804688 102.300781 15.582031 102.917969 15.582031 C 103.53125 15.582031 104.007812 15.796875 104.355469 16.230469 C 104.699219 16.660156 104.871094 17.207031 104.863281 17.882812 L 101.820312 17.882812 C 101.835938 18.519531 101.984375 19.015625 102.265625 19.363281 C 102.542969 19.710938 102.90625 19.890625 103.339844 19.890625 C 103.898438 19.890625 104.378906 19.636719 104.761719 19.132812 L 104.878906 19.164062 C 104.746094 19.535156 104.507812 19.84375 104.179688 20.105469 C 103.847656 20.363281 103.449219 20.488281 102.984375 20.488281 C 102.691406 20.496094 102.417969 20.4375 102.160156 20.328125 Z M 103.867188 17.605469 C 103.863281 17.304688 103.816406 17.023438 103.742188 16.761719 C 103.671875 16.503906 103.558594 16.289062 103.40625 16.125 C 103.257812 15.953125 103.082031 15.871094 102.882812 15.871094 C 102.667969 15.871094 102.484375 15.960938 102.324219 16.140625 C 102.160156 16.316406 102.042969 16.539062 101.960938 16.792969 C 101.882812 17.042969 101.835938 17.316406 101.820312 17.605469 Z M 103.867188 17.605469 " fill-opacity="1" fill-rule="nonzero"/><path fill="#231f20" d="M 108.199219 20.082031 C 108.308594 19.972656 108.359375 19.765625 108.359375 19.460938 L 108.359375 17.222656 C 108.359375 16.894531 108.273438 16.652344 108.101562 16.480469 C 107.933594 16.308594 107.71875 16.230469 107.46875 16.230469 C 107.085938 16.222656 106.734375 16.398438 106.410156 16.777344 L 106.410156 19.453125 C 106.410156 19.757812 106.460938 19.964844 106.570312 20.074219 C 106.679688 20.1875 106.835938 20.253906 107.042969 20.273438 L 107.042969 20.410156 L 104.722656 20.410156 L 104.722656 20.273438 C 104.832031 20.269531 104.921875 20.246094 104.996094 20.222656 C 105.070312 20.195312 105.144531 20.15625 105.210938 20.097656 C 105.273438 20.039062 105.335938 19.957031 105.363281 19.851562 C 105.402344 19.742188 105.414062 19.609375 105.414062 19.453125 L 105.414062 16.597656 C 105.414062 16.445312 105.402344 16.304688 105.363281 16.199219 C 105.328125 16.085938 105.273438 16.007812 105.210938 15.953125 C 105.144531 15.894531 105.070312 15.859375 104.996094 15.828125 C 104.921875 15.796875 104.824219 15.785156 104.722656 15.777344 L 104.722656 15.644531 L 106.410156 15.644531 L 106.410156 16.496094 C 106.59375 16.199219 106.820312 15.976562 107.078125 15.820312 C 107.335938 15.664062 107.617188 15.582031 107.910156 15.582031 C 108.160156 15.582031 108.398438 15.636719 108.609375 15.738281 C 108.824219 15.84375 109 16.015625 109.140625 16.25 C 109.28125 16.488281 109.355469 16.769531 109.355469 17.097656 L 109.355469 19.460938 C 109.355469 19.757812 109.414062 19.964844 109.539062 20.082031 C 109.664062 20.195312 109.832031 20.269531 110.0625 20.289062 L 110.0625 20.421875 L 107.734375 20.421875 L 107.734375 20.289062 C 107.933594 20.261719 108.089844 20.195312 108.199219 20.082031 Z M 108.199219 20.082031 " fill-opacity="1" fill-rule="nonzero"/><path fill="#231f20" d="M 110.464844 20.132812 C 110.265625 19.898438 110.164062 19.5625 110.164062 19.148438 L 110.164062 15.96875 L 109.464844 15.96875 L 109.464844 15.8125 C 109.78125 15.71875 110.074219 15.546875 110.339844 15.292969 C 110.605469 15.042969 110.828125 14.730469 110.988281 14.347656 L 111.152344 14.347656 L 111.152344 15.644531 L 112.460938 15.644531 L 112.460938 15.96875 L 111.152344 15.96875 L 111.152344 19.023438 C 111.152344 19.304688 111.203125 19.519531 111.304688 19.675781 C 111.410156 19.832031 111.570312 19.90625 111.785156 19.90625 C 112.019531 19.90625 112.25 19.800781 112.46875 19.601562 L 112.578125 19.628906 C 112.277344 20.207031 111.859375 20.503906 111.3125 20.503906 C 110.953125 20.496094 110.664062 20.371094 110.464844 20.132812 Z M 110.464844 20.132812 " fill-opacity="1" fill-rule="nonzero"/><path fill="#231f20" d="M 42.34375 29.40625 C 42.433594 29.375 42.511719 29.339844 42.59375 29.273438 C 42.675781 29.210938 42.734375 29.125 42.769531 29.011719 C 42.808594 28.902344 42.828125 28.761719 42.828125 28.597656 L 42.828125 23.699219 C 42.828125 23.535156 42.808594 23.394531 42.769531 23.285156 C 42.734375 23.171875 42.667969 23.082031 42.59375 23.023438 C 42.511719 22.964844 42.433594 22.921875 42.34375 22.890625 C 42.253906 22.863281 42.152344 22.847656 42.035156 22.839844 L 42.035156 22.691406 L 45.222656 22.691406 C 45.886719 22.691406 46.429688 22.890625 46.855469 23.292969 C 47.285156 23.691406 47.496094 24.195312 47.496094 24.796875 C 47.496094 25.234375 47.386719 25.609375 47.167969 25.9375 C 46.945312 26.261719 46.652344 26.507812 46.28125 26.679688 C 45.914062 26.847656 45.503906 26.929688 45.046875 26.929688 L 43.898438 26.929688 L 43.898438 28.597656 C 43.898438 28.761719 43.917969 28.902344 43.957031 29.011719 C 43.992188 29.125 44.058594 29.210938 44.140625 29.273438 C 44.222656 29.332031 44.300781 29.375 44.390625 29.40625 C 44.480469 29.433594 44.582031 29.449219 44.699219 29.457031 L 44.699219 29.605469 L 42.035156 29.605469 L 42.035156 29.457031 C 42.152344 29.449219 42.253906 29.433594 42.34375 29.40625 Z M 44.855469 26.625 C 45.3125 26.625 45.679688 26.449219 45.957031 26.101562 C 46.238281 25.75 46.378906 25.316406 46.378906 24.804688 C 46.378906 24.300781 46.246094 23.871094 45.980469 23.527344 C 45.714844 23.179688 45.363281 23.007812 44.914062 23.007812 L 43.898438 23.007812 L 43.898438 26.625 Z M 44.855469 26.625 " fill-opacity="1" fill-rule="nonzero"/><path fill="#231f20" d="M 47.652344 29.316406 C 47.394531 29.070312 47.269531 28.769531 47.269531 28.398438 C 47.269531 28.050781 47.386719 27.746094 47.617188 27.492188 C 47.84375 27.242188 48.175781 27.0625 48.585938 26.96875 C 49 26.871094 49.472656 26.855469 49.984375 26.9375 L 49.984375 26.34375 C 49.984375 26.003906 49.890625 25.75 49.691406 25.582031 C 49.492188 25.410156 49.25 25.328125 48.949219 25.328125 C 48.691406 25.328125 48.441406 25.394531 48.183594 25.53125 C 47.925781 25.664062 47.695312 25.871094 47.503906 26.152344 L 47.371094 26.113281 C 47.511719 25.738281 47.746094 25.417969 48.085938 25.167969 C 48.425781 24.914062 48.824219 24.789062 49.273438 24.78125 C 49.75 24.773438 50.148438 24.90625 50.472656 25.171875 C 50.796875 25.449219 50.957031 25.8125 50.957031 26.261719 L 50.957031 28.753906 C 50.957031 28.886719 50.972656 28.992188 50.996094 29.066406 C 51.015625 29.140625 51.070312 29.175781 51.140625 29.175781 C 51.199219 29.175781 51.253906 29.160156 51.304688 29.140625 L 51.363281 29.199219 C 51.289062 29.332031 51.1875 29.449219 51.070312 29.539062 C 50.945312 29.636719 50.796875 29.679688 50.632812 29.679688 C 50.433594 29.679688 50.28125 29.613281 50.164062 29.488281 C 50.046875 29.359375 49.984375 29.199219 49.984375 29.011719 C 49.832031 29.210938 49.648438 29.367188 49.417969 29.496094 C 49.191406 29.621094 48.933594 29.679688 48.644531 29.679688 C 48.234375 29.679688 47.902344 29.5625 47.652344 29.316406 Z M 48.441406 28.929688 C 48.578125 29.117188 48.792969 29.210938 49.074219 29.210938 C 49.433594 29.210938 49.742188 29.035156 49.992188 28.6875 L 49.992188 27.203125 C 49.464844 27.121094 49.027344 27.183594 48.710938 27.382812 C 48.386719 27.574219 48.234375 27.871094 48.234375 28.273438 C 48.226562 28.523438 48.292969 28.746094 48.441406 28.929688 Z M 48.441406 28.929688 " fill-opacity="1" fill-rule="nonzero"/><path fill="#231f20" d="M 52.601562 29.570312 C 52.429688 29.507812 52.277344 29.414062 52.136719 29.292969 C 51.996094 29.175781 51.886719 29.019531 51.804688 28.820312 C 51.722656 28.621094 51.679688 28.398438 51.679688 28.144531 L 51.679688 25.78125 C 51.679688 25.484375 51.621094 25.277344 51.496094 25.160156 C 51.371094 25.046875 51.199219 24.972656 50.972656 24.953125 L 50.972656 24.832031 L 52.660156 24.832031 L 52.660156 28.027344 C 52.660156 28.347656 52.746094 28.589844 52.925781 28.761719 C 53.101562 28.929688 53.3125 29.011719 53.566406 29.011719 C 53.757812 29.019531 53.949219 28.976562 54.140625 28.871094 C 54.335938 28.777344 54.515625 28.628906 54.667969 28.441406 L 54.667969 25.789062 C 54.667969 25.484375 54.617188 25.277344 54.507812 25.167969 C 54.398438 25.054688 54.234375 24.988281 54.027344 24.964844 L 54.027344 24.832031 L 55.65625 24.832031 L 55.65625 28.648438 C 55.65625 28.804688 55.671875 28.945312 55.707031 29.050781 C 55.742188 29.160156 55.796875 29.242188 55.863281 29.292969 C 55.929688 29.355469 56 29.390625 56.074219 29.421875 C 56.148438 29.449219 56.246094 29.464844 56.347656 29.472656 L 56.347656 29.605469 L 54.917969 29.605469 C 54.808594 29.375 54.726562 29.101562 54.675781 28.769531 C 54.476562 29.058594 54.242188 29.273438 53.976562 29.429688 C 53.703125 29.582031 53.425781 29.65625 53.136719 29.65625 C 52.945312 29.664062 52.769531 29.636719 52.601562 29.570312 Z M 52.601562 29.570312 " fill-opacity="1" fill-rule="nonzero"/><path fill="#231f20" d="M 56.703125 29.273438 C 56.828125 29.160156 56.894531 28.953125 56.894531 28.648438 L 56.894531 23.648438 C 56.894531 23.351562 56.828125 23.152344 56.695312 23.070312 C 56.5625 22.980469 56.371094 22.949219 56.132812 22.980469 L 56.105469 22.847656 L 57.878906 22.503906 L 57.878906 28.648438 C 57.878906 28.953125 57.945312 29.160156 58.070312 29.273438 C 58.195312 29.382812 58.386719 29.449219 58.628906 29.472656 L 58.628906 29.605469 L 56.140625 29.605469 L 56.140625 29.472656 C 56.382812 29.449219 56.574219 29.382812 56.703125 29.273438 Z M 56.703125 29.273438 " fill-opacity="1" fill-rule="nonzero"/><path fill="#231f20" d="M 60.484375 26.523438 L 68.222656 26.523438 L 68.222656 26.847656 L 60.484375 26.847656 Z M 60.484375 26.523438 " fill-opacity="1" fill-rule="nonzero"/><path fill="#231f20" d="M 70.226562 29.273438 C 70.382812 29.160156 70.507812 28.945312 70.59375 28.640625 L 72.113281 23.667969 C 72.148438 23.535156 72.171875 23.425781 72.179688 23.328125 C 72.1875 23.230469 72.171875 23.15625 72.148438 23.097656 C 72.125 23.039062 72.082031 22.988281 72.03125 22.949219 C 71.980469 22.914062 71.914062 22.882812 71.847656 22.867188 C 71.78125 22.855469 71.699219 22.839844 71.613281 22.832031 L 71.664062 22.699219 L 73.96875 22.699219 L 73.929688 22.832031 C 73.679688 22.855469 73.480469 22.921875 73.328125 23.03125 C 73.171875 23.144531 73.046875 23.359375 72.953125 23.660156 L 71.222656 29.355469 L 72.503906 29.347656 C 72.761719 29.347656 72.996094 29.300781 73.203125 29.226562 C 73.40625 29.152344 73.59375 29.042969 73.753906 28.894531 C 73.910156 28.746094 74.046875 28.589844 74.167969 28.414062 C 74.285156 28.242188 74.394531 28.035156 74.496094 27.804688 L 74.644531 27.835938 L 74.054688 29.40625 L 73.960938 29.613281 L 69.59375 29.613281 L 69.636719 29.480469 C 69.875 29.449219 70.074219 29.382812 70.226562 29.273438 Z M 70.226562 29.273438 " fill-opacity="1" fill-rule="nonzero"/><path fill="#231f20" d="M 75.382812 29.421875 C 75.132812 29.21875 74.953125 28.929688 74.867188 28.554688 C 74.769531 28.175781 74.792969 27.714844 74.925781 27.175781 C 75.050781 26.6875 75.257812 26.253906 75.542969 25.886719 C 75.832031 25.515625 76.15625 25.242188 76.507812 25.054688 C 76.859375 24.871094 77.222656 24.78125 77.582031 24.796875 C 77.945312 24.804688 78.246094 24.898438 78.488281 25.09375 C 78.730469 25.285156 78.902344 25.566406 78.988281 25.9375 C 79.078125 26.308594 79.054688 26.757812 78.921875 27.292969 C 78.796875 27.789062 78.589844 28.234375 78.3125 28.613281 C 78.03125 28.992188 77.714844 29.28125 77.371094 29.464844 C 77.023438 29.648438 76.667969 29.746094 76.308594 29.730469 C 75.941406 29.722656 75.632812 29.621094 75.382812 29.421875 Z M 75.601562 28.332031 C 75.601562 28.671875 75.667969 28.945312 75.800781 29.160156 C 75.933594 29.375 76.125 29.488281 76.367188 29.496094 C 76.609375 29.5 76.847656 29.398438 77.074219 29.183594 C 77.304688 28.96875 77.5 28.703125 77.671875 28.367188 C 77.839844 28.042969 77.972656 27.671875 78.078125 27.269531 C 78.148438 26.980469 78.203125 26.707031 78.214844 26.441406 C 78.238281 26.183594 78.230469 25.945312 78.195312 25.730469 C 78.15625 25.515625 78.082031 25.351562 77.964844 25.21875 C 77.847656 25.085938 77.699219 25.027344 77.515625 25.019531 C 77.273438 25.011719 77.03125 25.113281 76.789062 25.320312 C 76.542969 25.53125 76.339844 25.796875 76.160156 26.121094 C 75.984375 26.449219 75.851562 26.796875 75.75 27.183594 C 75.644531 27.613281 75.601562 27.988281 75.601562 28.332031 Z M 75.601562 28.332031 " fill-opacity="1" fill-rule="nonzero"/><path fill="#231f20" d="M 78.664062 29.207031 L 79.011719 28.078125 L 79.128906 28.078125 C 79.121094 28.5 79.21875 28.84375 79.421875 29.085938 C 79.652344 29.382812 79.953125 29.523438 80.328125 29.515625 C 80.558594 29.507812 80.757812 29.449219 80.917969 29.324219 C 81.082031 29.207031 81.183594 29.042969 81.226562 28.84375 C 81.25 28.738281 81.25 28.628906 81.21875 28.507812 C 81.191406 28.398438 81.152344 28.292969 81.101562 28.203125 C 81.050781 28.117188 80.976562 28.011719 80.875 27.902344 C 80.769531 27.789062 80.683594 27.695312 80.601562 27.621094 C 80.519531 27.546875 80.417969 27.457031 80.285156 27.335938 C 79.984375 27.078125 79.769531 26.863281 79.660156 26.6875 C 79.550781 26.507812 79.511719 26.285156 79.550781 26.035156 C 79.601562 25.664062 79.777344 25.367188 80.070312 25.136719 C 80.367188 24.914062 80.734375 24.796875 81.175781 24.789062 C 81.367188 24.789062 81.558594 24.804688 81.734375 24.855469 C 81.914062 24.90625 82.050781 24.945312 82.140625 24.980469 C 82.230469 25.019531 82.347656 25.085938 82.5 25.167969 L 82.15625 26.308594 L 82.050781 26.308594 C 82.058594 25.964844 82.007812 25.679688 81.890625 25.457031 C 81.808594 25.308594 81.691406 25.1875 81.550781 25.113281 C 81.40625 25.039062 81.25 25.003906 81.082031 25.011719 C 80.859375 25.019531 80.667969 25.085938 80.5 25.21875 C 80.328125 25.351562 80.234375 25.523438 80.203125 25.738281 C 80.183594 25.929688 80.242188 26.121094 80.382812 26.308594 C 80.519531 26.492188 80.769531 26.746094 81.125 27.046875 C 81.425781 27.292969 81.640625 27.523438 81.757812 27.738281 C 81.875 27.953125 81.914062 28.199219 81.867188 28.457031 C 81.847656 28.621094 81.792969 28.78125 81.714844 28.929688 C 81.632812 29.078125 81.53125 29.21875 81.398438 29.347656 C 81.265625 29.472656 81.101562 29.570312 80.902344 29.644531 C 80.703125 29.714844 80.492188 29.753906 80.253906 29.753906 C 79.710938 29.761719 79.171875 29.582031 78.664062 29.207031 Z M 78.664062 29.207031 " fill-opacity="1" fill-rule="nonzero"/><path fill="#231f20" d="M 87.804688 29.421875 C 87.882812 29.398438 87.964844 29.355469 88.054688 29.300781 C 88.132812 29.25 88.199219 29.167969 88.238281 29.058594 C 88.273438 28.953125 88.289062 28.820312 88.28125 28.671875 L 88.179688 27.136719 L 85.75 27.136719 L 84.730469 28.671875 C 84.628906 28.828125 84.5625 28.953125 84.535156 29.058594 C 84.503906 29.160156 84.511719 29.242188 84.554688 29.292969 C 84.601562 29.355469 84.660156 29.390625 84.730469 29.414062 C 84.804688 29.433594 84.902344 29.457031 85.027344 29.464844 L 84.984375 29.597656 L 83.199219 29.597656 L 83.238281 29.464844 C 83.378906 29.441406 83.503906 29.421875 83.613281 29.375 C 83.722656 29.339844 83.847656 29.257812 83.996094 29.140625 C 84.144531 29.019531 84.277344 28.863281 84.402344 28.664062 L 88.390625 22.683594 L 88.695312 22.683594 L 89.089844 28.664062 C 89.105469 28.863281 89.136719 29.019531 89.195312 29.140625 C 89.253906 29.257812 89.320312 29.332031 89.402344 29.375 C 89.480469 29.421875 89.585938 29.449219 89.71875 29.457031 L 89.664062 29.589844 L 87.472656 29.589844 L 87.515625 29.457031 C 87.617188 29.464844 87.722656 29.441406 87.804688 29.421875 Z M 88.15625 26.878906 L 87.949219 23.824219 L 85.917969 26.878906 Z M 88.15625 26.878906 " fill-opacity="1" fill-rule="nonzero"/><path fill="#231f20" d="M 92.941406 29.589844 C 92.839844 29.496094 92.773438 29.355469 92.742188 29.167969 C 92.722656 28.984375 92.75 28.746094 92.839844 28.472656 L 93.621094 26.09375 C 93.691406 25.878906 93.722656 25.707031 93.707031 25.582031 C 93.691406 25.457031 93.65625 25.367188 93.605469 25.316406 C 93.546875 25.261719 93.472656 25.242188 93.382812 25.242188 C 93.28125 25.242188 93.164062 25.269531 93.03125 25.335938 C 92.898438 25.402344 92.734375 25.515625 92.558594 25.683594 C 92.382812 25.855469 92.191406 26.070312 92 26.324219 C 91.808594 26.574219 91.609375 26.914062 91.394531 27.34375 C 91.183594 27.769531 90.984375 28.242188 90.792969 28.769531 L 90.535156 29.605469 L 89.746094 29.605469 L 90.910156 25.824219 C 91.003906 25.492188 91.027344 25.277344 90.984375 25.167969 C 90.941406 25.054688 90.808594 24.996094 90.585938 24.996094 L 90.628906 24.863281 L 91.984375 24.863281 L 91.308594 27.085938 C 91.5 26.707031 91.691406 26.375 91.898438 26.085938 C 92.101562 25.796875 92.285156 25.574219 92.449219 25.417969 C 92.617188 25.261719 92.78125 25.128906 92.949219 25.03125 C 93.117188 24.9375 93.257812 24.878906 93.375 24.847656 C 93.488281 24.816406 93.597656 24.804688 93.707031 24.804688 C 94.023438 24.804688 94.253906 24.914062 94.398438 25.136719 C 94.546875 25.359375 94.5625 25.648438 94.445312 26.011719 L 93.671875 28.339844 C 93.589844 28.5625 93.546875 28.753906 93.53125 28.902344 C 93.515625 29.050781 93.523438 29.160156 93.5625 29.226562 C 93.597656 29.292969 93.648438 29.324219 93.722656 29.324219 C 93.847656 29.324219 94.011719 29.234375 94.195312 29.066406 C 94.386719 28.894531 94.570312 28.65625 94.753906 28.351562 L 94.84375 28.414062 C 94.664062 28.777344 94.4375 29.085938 94.15625 29.347656 C 93.878906 29.605469 93.597656 29.730469 93.324219 29.730469 C 93.183594 29.730469 93.046875 29.6875 92.941406 29.589844 Z M 92.941406 29.589844 " fill-opacity="1" fill-rule="nonzero"/><path fill="#231f20" d="M 94.589844 31.25 C 94.230469 30.992188 94.097656 30.695312 94.195312 30.347656 C 94.265625 30.085938 94.453125 29.902344 94.730469 29.789062 C 95.019531 29.671875 95.335938 29.644531 95.675781 29.703125 L 95.675781 29.789062 C 95.253906 29.925781 94.996094 30.132812 94.90625 30.40625 C 94.820312 30.6875 94.886719 30.925781 95.121094 31.125 C 95.355469 31.324219 95.695312 31.429688 96.152344 31.449219 C 96.527344 31.472656 96.867188 31.40625 97.160156 31.265625 C 97.457031 31.125 97.648438 30.925781 97.742188 30.671875 C 97.917969 30.199219 97.617188 29.84375 96.84375 29.621094 L 95.675781 29.292969 C 95.277344 29.191406 95.011719 29.050781 94.871094 28.878906 C 94.730469 28.707031 94.695312 28.53125 94.753906 28.339844 C 94.847656 28.058594 95.105469 27.863281 95.535156 27.746094 C 95.378906 27.589844 95.285156 27.40625 95.238281 27.183594 C 95.195312 26.960938 95.203125 26.699219 95.277344 26.402344 C 95.417969 25.914062 95.6875 25.523438 96.09375 25.21875 C 96.5 24.914062 96.953125 24.773438 97.449219 24.78125 C 97.964844 24.78125 98.355469 24.945312 98.613281 25.277344 C 98.75 25.09375 98.929688 24.953125 99.140625 24.855469 C 99.355469 24.757812 99.570312 24.75 99.796875 24.816406 L 99.578125 25.410156 C 99.265625 25.261719 98.980469 25.269531 98.722656 25.417969 C 98.90625 25.730469 98.9375 26.09375 98.824219 26.507812 C 98.683594 27.003906 98.398438 27.40625 97.964844 27.707031 C 97.53125 28.011719 97.074219 28.152344 96.59375 28.144531 C 96.21875 28.144531 95.910156 28.050781 95.667969 27.863281 C 95.503906 27.929688 95.402344 28.027344 95.363281 28.144531 C 95.328125 28.242188 95.363281 28.324219 95.460938 28.40625 C 95.554688 28.488281 95.746094 28.566406 96.027344 28.648438 L 97.34375 29.027344 C 97.742188 29.125 98.03125 29.308594 98.214844 29.5625 C 98.398438 29.820312 98.425781 30.125 98.308594 30.488281 C 98.230469 30.726562 98.109375 30.925781 97.941406 31.09375 C 97.773438 31.265625 97.582031 31.390625 97.367188 31.480469 C 97.152344 31.570312 96.925781 31.628906 96.699219 31.664062 C 96.46875 31.703125 96.234375 31.710938 95.996094 31.695312 C 95.417969 31.652344 94.953125 31.511719 94.589844 31.25 Z M 95.976562 27.167969 C 95.976562 27.382812 96.035156 27.566406 96.152344 27.699219 C 96.269531 27.835938 96.425781 27.914062 96.636719 27.914062 C 96.949219 27.914062 97.226562 27.78125 97.484375 27.5 C 97.742188 27.21875 97.925781 26.878906 98.03125 26.464844 C 98.097656 26.195312 98.125 25.953125 98.117188 25.730469 C 98.109375 25.507812 98.042969 25.328125 97.917969 25.195312 C 97.800781 25.054688 97.640625 24.988281 97.425781 24.988281 C 97.125 24.988281 96.84375 25.121094 96.601562 25.402344 C 96.359375 25.683594 96.183594 26.027344 96.070312 26.425781 C 96.003906 26.699219 95.976562 26.945312 95.976562 27.167969 Z M 95.976562 27.167969 " fill-opacity="1" fill-rule="nonzero"/><path fill="#231f20" d="M 99.488281 29.355469 C 99.238281 29.109375 99.082031 28.789062 99.023438 28.398438 C 98.964844 27.996094 99.007812 27.546875 99.148438 27.042969 C 99.289062 26.574219 99.503906 26.167969 99.78125 25.820312 C 100.0625 25.46875 100.378906 25.210938 100.71875 25.046875 C 101.054688 24.878906 101.402344 24.796875 101.753906 24.796875 C 102.167969 24.804688 102.484375 24.929688 102.683594 25.167969 C 102.890625 25.402344 102.933594 25.683594 102.839844 26.003906 C 102.714844 26.410156 102.390625 26.746094 101.859375 27.019531 C 101.328125 27.292969 100.660156 27.425781 99.855469 27.433594 C 99.773438 27.96875 99.820312 28.414062 99.988281 28.753906 C 100.15625 29.09375 100.4375 29.265625 100.804688 29.273438 C 101.085938 29.273438 101.359375 29.191406 101.628906 29.011719 C 101.902344 28.835938 102.152344 28.589844 102.382812 28.273438 L 102.484375 28.324219 C 102.226562 28.769531 101.917969 29.117188 101.5625 29.359375 C 101.210938 29.605469 100.828125 29.730469 100.4375 29.730469 C 100.054688 29.714844 99.738281 29.597656 99.488281 29.355469 Z M 100.761719 27.109375 C 101.027344 27.027344 101.246094 26.921875 101.417969 26.796875 C 101.585938 26.671875 101.734375 26.53125 101.84375 26.382812 C 101.953125 26.234375 102.042969 26.078125 102.09375 25.914062 C 102.136719 25.765625 102.167969 25.625 102.167969 25.492188 C 102.167969 25.359375 102.132812 25.246094 102.042969 25.160156 C 101.960938 25.070312 101.835938 25.019531 101.675781 25.019531 C 101.367188 25.011719 101.050781 25.171875 100.726562 25.507812 C 100.402344 25.839844 100.15625 26.261719 99.996094 26.773438 C 99.960938 26.894531 99.914062 27.046875 99.871094 27.234375 C 100.203125 27.234375 100.496094 27.191406 100.761719 27.109375 Z M 100.761719 27.109375 " fill-opacity="1" fill-rule="nonzero"/><path fill="#231f20" d="M 102.800781 29.40625 C 102.707031 29.191406 102.714844 28.863281 102.839844 28.441406 L 104.347656 23.59375 C 104.441406 23.304688 104.4375 23.113281 104.332031 23.03125 C 104.230469 22.949219 104.054688 22.921875 103.800781 22.941406 L 103.808594 22.816406 L 105.460938 22.511719 L 103.648438 28.332031 C 103.441406 28.992188 103.464844 29.316406 103.714844 29.316406 C 103.839844 29.316406 103.992188 29.226562 104.1875 29.058594 C 104.378906 28.886719 104.5625 28.648438 104.746094 28.347656 L 104.839844 28.40625 C 104.664062 28.777344 104.429688 29.085938 104.148438 29.347656 C 103.867188 29.605469 103.589844 29.730469 103.316406 29.730469 C 103.074219 29.730469 102.90625 29.628906 102.800781 29.40625 Z M 102.800781 29.40625 " fill-opacity="1" fill-rule="nonzero"/><path fill="#231f20" d="M 105.386719 29.355469 C 105.136719 29.109375 104.980469 28.789062 104.921875 28.398438 C 104.863281 27.996094 104.90625 27.546875 105.046875 27.042969 C 105.1875 26.574219 105.402344 26.167969 105.679688 25.820312 C 105.960938 25.46875 106.277344 25.210938 106.617188 25.046875 C 106.953125 24.878906 107.300781 24.796875 107.652344 24.796875 C 108.066406 24.804688 108.382812 24.929688 108.582031 25.167969 C 108.78125 25.402344 108.832031 25.683594 108.734375 26.003906 C 108.609375 26.410156 108.285156 26.746094 107.757812 27.019531 C 107.226562 27.285156 106.554688 27.425781 105.753906 27.433594 C 105.671875 27.96875 105.71875 28.414062 105.886719 28.753906 C 106.0625 29.09375 106.335938 29.265625 106.703125 29.273438 C 106.984375 29.273438 107.257812 29.191406 107.527344 29.011719 C 107.800781 28.835938 108.050781 28.589844 108.28125 28.273438 L 108.382812 28.324219 C 108.125 28.769531 107.816406 29.117188 107.460938 29.359375 C 107.101562 29.613281 106.726562 29.730469 106.335938 29.730469 C 105.945312 29.714844 105.636719 29.597656 105.386719 29.355469 Z M 106.652344 27.109375 C 106.917969 27.027344 107.136719 26.921875 107.308594 26.796875 C 107.476562 26.671875 107.625 26.53125 107.734375 26.382812 C 107.84375 26.234375 107.933594 26.078125 107.984375 25.914062 C 108.027344 25.765625 108.058594 25.625 108.058594 25.492188 C 108.058594 25.359375 108.023438 25.246094 107.933594 25.160156 C 107.84375 25.070312 107.726562 25.019531 107.566406 25.019531 C 107.257812 25.011719 106.9375 25.171875 106.617188 25.507812 C 106.292969 25.839844 106.046875 26.261719 105.886719 26.773438 C 105.851562 26.894531 105.804688 27.046875 105.761719 27.234375 C 106.09375 27.234375 106.386719 27.191406 106.652344 27.109375 Z M 106.652344 27.109375 " fill-opacity="1" fill-rule="nonzero"/><path fill="#231f20" d="M 108.25 29.207031 L 108.597656 28.078125 L 108.714844 28.078125 C 108.707031 28.5 108.800781 28.84375 109.007812 29.085938 C 109.238281 29.382812 109.539062 29.523438 109.914062 29.515625 C 110.140625 29.507812 110.339844 29.449219 110.503906 29.324219 C 110.664062 29.207031 110.769531 29.042969 110.8125 28.84375 C 110.835938 28.738281 110.835938 28.628906 110.804688 28.507812 C 110.777344 28.390625 110.738281 28.292969 110.6875 28.203125 C 110.636719 28.117188 110.5625 28.011719 110.457031 27.902344 C 110.355469 27.789062 110.265625 27.695312 110.1875 27.621094 C 110.105469 27.546875 110.003906 27.457031 109.871094 27.335938 C 109.566406 27.078125 109.355469 26.863281 109.242188 26.6875 C 109.132812 26.507812 109.097656 26.285156 109.132812 26.035156 C 109.183594 25.664062 109.363281 25.367188 109.65625 25.136719 C 109.949219 24.914062 110.320312 24.796875 110.761719 24.789062 C 110.953125 24.789062 111.144531 24.804688 111.320312 24.855469 C 111.503906 24.898438 111.636719 24.945312 111.726562 24.980469 C 111.8125 25.019531 111.929688 25.085938 112.085938 25.167969 L 111.738281 26.308594 L 111.636719 26.308594 C 111.644531 25.964844 111.59375 25.679688 111.476562 25.457031 C 111.394531 25.308594 111.277344 25.1875 111.136719 25.113281 C 110.988281 25.039062 110.835938 25.003906 110.664062 25.011719 C 110.445312 25.019531 110.253906 25.085938 110.082031 25.21875 C 109.914062 25.34375 109.816406 25.523438 109.789062 25.738281 C 109.765625 25.929688 109.824219 26.121094 109.964844 26.308594 C 110.105469 26.492188 110.355469 26.746094 110.710938 27.046875 C 111.011719 27.292969 111.226562 27.523438 111.34375 27.738281 C 111.460938 27.953125 111.496094 28.199219 111.453125 28.457031 C 111.429688 28.621094 111.378906 28.78125 111.296875 28.929688 C 111.21875 29.078125 111.113281 29.21875 110.980469 29.347656 C 110.847656 29.472656 110.6875 29.570312 110.488281 29.644531 C 110.289062 29.714844 110.074219 29.753906 109.839844 29.753906 C 109.289062 29.761719 108.757812 29.582031 108.25 29.207031 Z M 108.25 29.207031 " fill-opacity="1" fill-rule="nonzero"/><path fill="#026ca9" d="M 41.152344 26.027344 C 41.175781 26.453125 41.121094 26.863281 40.980469 27.265625 C 40.839844 27.667969 40.628906 28.027344 40.347656 28.34375 C 40.0625 28.660156 39.734375 28.914062 39.351562 29.097656 C 38.972656 29.28125 38.570312 29.386719 38.148438 29.410156 C 37.726562 29.433594 37.3125 29.375 36.914062 29.234375 C 36.515625 29.089844 36.160156 28.878906 35.84375 28.59375 C 35.53125 28.3125 35.28125 27.976562 35.097656 27.59375 C 34.914062 27.210938 34.8125 26.808594 34.789062 26.382812 C 34.765625 25.957031 34.820312 25.542969 34.960938 25.140625 C 35.101562 24.742188 35.3125 24.382812 35.59375 24.0625 C 35.878906 23.746094 36.207031 23.496094 36.589844 23.3125 C 36.96875 23.128906 37.371094 23.023438 37.792969 23 C 38.214844 22.976562 38.628906 23.035156 39.027344 23.175781 C 39.425781 23.316406 39.78125 23.53125 40.097656 23.8125 C 40.410156 24.097656 40.660156 24.429688 40.84375 24.8125 C 41.027344 25.199219 41.128906 25.601562 41.152344 26.027344 Z M 41.152344 26.027344 " fill-opacity="1" fill-rule="nonzero"/><path fill="#ffffff" d="M 39.574219 26.308594 C 39.839844 26.175781 40 26.003906 40.066406 25.789062 C 40.113281 25.625 40.082031 25.476562 39.988281 25.34375 C 39.890625 25.21875 39.738281 25.160156 39.507812 25.144531 C 39.347656 25.144531 39.167969 25.1875 38.992188 25.269531 C 38.839844 25.34375 38.683594 25.46875 38.535156 25.648438 C 38.398438 25.8125 38.292969 26.011719 38.21875 26.25 C 38.160156 26.464844 38.140625 26.65625 38.152344 26.832031 L 38.144531 26.828125 L 38.125 26.863281 C 38.027344 27.019531 37.941406 27.121094 37.859375 27.195312 C 37.757812 27.292969 37.691406 27.316406 37.660156 27.316406 C 37.636719 27.316406 37.625 27.308594 37.625 27.300781 C 37.609375 27.277344 37.578125 27.191406 37.667969 26.902344 L 38.558594 24.046875 L 37.667969 24.210938 L 37.644531 24.351562 L 37.699219 24.351562 C 37.824219 24.34375 37.882812 24.351562 37.925781 24.378906 C 37.960938 24.410156 37.953125 24.492188 37.917969 24.609375 L 37.703125 25.285156 C 37.601562 25.203125 37.484375 25.160156 37.335938 25.144531 C 37.195312 25.136719 37.050781 25.160156 36.902344 25.21875 C 36.761719 25.269531 36.636719 25.351562 36.535156 25.457031 C 36.429688 25.542969 36.335938 25.65625 36.238281 25.8125 C 36.152344 25.945312 36.085938 26.085938 36.035156 26.234375 C 35.988281 26.359375 35.953125 26.5 35.921875 26.671875 C 35.878906 26.945312 35.902344 27.167969 35.988281 27.324219 C 36.078125 27.492188 36.21875 27.582031 36.410156 27.597656 C 36.417969 27.597656 36.417969 27.597656 36.421875 27.597656 C 36.6875 27.597656 36.9375 27.410156 37.175781 27.042969 C 37.144531 27.195312 37.144531 27.332031 37.1875 27.425781 C 37.234375 27.539062 37.328125 27.597656 37.453125 27.597656 C 37.460938 27.597656 37.476562 27.597656 37.484375 27.597656 C 37.617188 27.597656 37.761719 27.53125 37.910156 27.398438 C 38.019531 27.300781 38.117188 27.183594 38.199219 27.042969 C 38.234375 27.183594 38.300781 27.308594 38.410156 27.410156 C 38.53125 27.523438 38.683594 27.589844 38.890625 27.621094 C 39.089844 27.621094 39.273438 27.554688 39.449219 27.433594 C 39.632812 27.300781 39.789062 27.128906 39.90625 26.921875 L 39.929688 26.886719 L 39.804688 26.828125 L 39.78125 26.855469 C 39.671875 27.003906 39.554688 27.117188 39.433594 27.195312 C 39.308594 27.269531 39.183594 27.308594 39.066406 27.308594 C 38.90625 27.308594 38.792969 27.234375 38.714844 27.085938 C 38.632812 26.9375 38.609375 26.746094 38.648438 26.515625 C 39 26.507812 39.308594 26.441406 39.574219 26.308594 Z M 38.65625 26.316406 C 38.660156 26.292969 38.660156 26.277344 38.667969 26.253906 C 38.675781 26.210938 38.691406 26.175781 38.699219 26.144531 C 38.773438 25.898438 38.890625 25.707031 39.039062 25.550781 C 39.183594 25.402344 39.324219 25.328125 39.457031 25.328125 C 39.515625 25.328125 39.566406 25.351562 39.605469 25.390625 C 39.632812 25.417969 39.648438 25.460938 39.648438 25.523438 C 39.648438 25.597656 39.640625 25.65625 39.617188 25.714844 C 39.597656 25.78125 39.558594 25.855469 39.507812 25.921875 C 39.457031 25.988281 39.390625 26.054688 39.308594 26.113281 C 39.230469 26.183594 39.125 26.226562 39.007812 26.261719 C 38.90625 26.300781 38.785156 26.324219 38.65625 26.316406 Z M 36.84375 27.160156 C 36.777344 27.21875 36.71875 27.257812 36.679688 27.277344 C 36.636719 27.292969 36.59375 27.300781 36.546875 27.300781 C 36.460938 27.300781 36.421875 27.234375 36.402344 27.175781 C 36.363281 27.078125 36.355469 26.953125 36.371094 26.828125 C 36.386719 26.679688 36.421875 26.53125 36.476562 26.351562 C 36.578125 26.035156 36.703125 25.796875 36.859375 25.617188 C 36.996094 25.457031 37.160156 25.367188 37.320312 25.367188 C 37.328125 25.367188 37.335938 25.367188 37.34375 25.367188 C 37.425781 25.367188 37.484375 25.390625 37.542969 25.425781 C 37.585938 25.457031 37.617188 25.507812 37.625 25.558594 L 37.511719 25.894531 C 37.445312 26.09375 37.375 26.277344 37.269531 26.5 C 37.1875 26.671875 37.117188 26.804688 37.042969 26.914062 C 36.984375 27.003906 36.917969 27.078125 36.84375 27.160156 Z M 36.84375 27.160156 " fill-opacity="1" fill-rule="nonzero"/></svg>